@startuml
'https://plantuml.com/class-diagram

skinparam monochrome true
skinparam packageStyle rectangle
skinparam shadowing false

'skinparam linetype ortho
'left to right direction
skinparam classAttributeIconSize 0
'skinparam groupInheritance 2
hide circle
hide methods

class Employee{
}

class Person{
name
email
cCNumber
taxNumber
address
phoneNumber
}

class Agent{

}

class Client{
}

class Buyer


class Visit{
date
time
prediction
status
}


class Property{
area
cityCenterDistance
photographs
}

BranchEmployee --|> Employee

Person <|-- Employee
Person <|-- Client


BranchEmployee <|- Agent


Buyer --|> Client
Visit "*" -down- "1" Buyer: requests <
Visit "*" -down- "1" Agent: scheduled by >
Visit "*" -- "1" Property: visits >



@enduml
