@startuml
'skinparam monochrome true
skinparam packageStyle rectangle
skinparam shadowing false
skinparam linetype polyline
'skinparam linetype orto

skinparam classAttributeIconSize 0

'left to right direction

class RegisterVisitUI{
}

class RegisterVisitController {
    + RegisterVisitController(ScheduledVisitRepository, VisitRepository)
    +CreateVisit(ScheduledVisit,opinionAboutBusiness,classification)
    +getScheduledVisitsByAgentName(agentName)
    - getEmployeeFromSession()

}

class ApplicationSession
{
    + static getInstance()
    + getCurrentSession()
}

class UserSession
{
    + getUserNameByEmail()
}


class Repositories {
    - Repositories()
    + getInstance() : Repositories
    + getScheduledVisitRepository()
    + getVisitRepository()
}

class ScheduledVisitRepository{
    +getScheduledVisitList()
}

class Announcement{
    - status
    - date
    -commission
    +Announcement(status,date, property,commission)
}

class Property{
  -String ID
  -String Business
  -float size
  -float distance_from_the_city_center
  -float price
}



class Agent {
    -String name
    -string passport
    -int taxNumber
    -string address
    -int phoneNumber
    -string email
    +RegisterVisit()

}

class Client{
    -String name
    -String passport
    -int taxNumber
    -string address
    -int phoneNumber
    -string email

}

class ScheduledVisit{
    -LocalDate date
    -Date beginHour
    -Date endHour
    }

    class Visit{
        - String opinionAboutBusiness
        -String classification
        +Visit(ScheduledVisit,opinionAboutBusiness,classification)
    }

    class VisitRepository{
    +addVisit()
    +ValidateVisit()
    }

    class Location{
        -String Street
        -String doorNumber
        -int zipCode
    }

    class City{
        -String cityName
    }

    class District{
        -String districtName
     }

    class State{
        -String stateName
       }




Repositories -> Repositories : instance
ApplicationSession -> ApplicationSession : instance
RegisterVisitController .> Repositories : repositories


ApplicationSession --> "1" UserSession : userSession


RegisterVisitController ..> ApplicationSession
RegisterVisitController ..> UserSession

RegisterVisitUI .> RegisterVisitController

RegisterVisitController ..> Visit

RegisterVisitController ..> ScheduledVisitRepository : ScheduledVisitRepository

RegisterVisitController ..> VisitRepository : VisitRepository

VisitRepository "1" --> "*" Visit

ScheduledVisitRepository "1" --> "*" ScheduledVisit



Announcement "1" ---> "1" Property: property

Property "1" ---> "1" Location: location

Location "1" --> "1" City: city

City "1" --> "1" District: district

District "1" --> "1" State: state



Announcement "1" ---> "1" ScheduledVisit: ScheduledVisit

Visit "1" ---> "1" ScheduledVisit: ScheduledVisit

ScheduledVisit --> Client : RequestedBy/AcceptedBy/RejectedBy

Visit --> Agent : RegisteredBy

Announcement --> Agent : publishedBy

@enduml