@startuml
interface Runnable {
    + run()
}

class AnalyseDealsGUI {
    + start()
    + main()
}

class AnalyseDealsController {
    - housesAndApartmentsList
    + createPredictorMatrix()
    + calculateMultilinearRegression()
    + getApartmentsAndHouses()
    + simpleLinearRegression()
    + multiLinearRegression()
}

class PurchaseOrderRepository {

    +getAllPurchaseOrderAccepted()
    +getPurchaseOrderProperty()

}

class Repositories {

    +getInstance()
    +getPurchaseOrderRepository()

}

Application -right-|> AnalyseDealsGUI
Runnable -left-|> AnalyseDealsGUI
AnalyseDealsGUI -[dashed]-> AnalyseDealsController
AnalyseDealsController-[dashed]-> Repositories
AnalyseDealsController-[dashed]-> PurchaseOrderRepository

PurchaseOrderRepository -down-> "*" PurchaseOrder

Repositories --> Repositories: Instance

Repositories -->"1" PurchaseOrderRepository

@enduml