@startuml
skinparam monochrome true
skinparam packageStyle rectangle
skinparam shadowing false

'left to right direction

skinparam classAttributeIconSize 0

hide circle
hide methods

class Agent {
    citizenCard
    taxNumber
    address
    phoneNumber
    agency
}



class Announcement {
    status
    date
}
class Client {
    name
    email
    phoneNumber

}


class House {
     numberOfBedrooms
     numberOfBathroom
     numberOfParkingSpaces
     availableEquipment
     existenceOfBasement
     inhabitableLoft
     sunExposure
}

class Apartment {
     numberOfBedrooms
     numberOfBathroom
     numberOfParkingSpaces
     availableEquipment

}
class Land {

}

class Commission {
    commissionValue
}

class Property {
     area
     distance_from_the_city_centre
     price
     photographs
     Type_Business
     numberOfMonthsRent

}

class Location{
     doorNumber
     street
     postalCode
}
class City{
    cityName
}

class District{
    districtName
}
class State{
    stateName
}

class Notification{
    reasonToReject
}




Announcement "1" -- "1" Property: contains >
Agent "1" -- "*" Announcement: accept/reject/publish >
Client "1" - "*" Announcement: request >
House "1" --"1" Property: is >
Apartment"1" -- "1" Property: is >
Land"1" - "1" Property: is >
Announcement"1" - "1" Commission: it has >
Property "1" -- "1" Location: it has >
Location "1" -- "1" City: contains >
City "1" -- "1" District: contains >
District "1" -- "1" State: contains >
Notification "1" -- "1" Client: sent to >
Agent "1" -- "*" Notification : send >





@enduml